<?xml version="1.0" encoding="UTF-8"?><svg id="Layer_2" xmlns="http://www.w3.org/2000/svg" viewBox="0 0 79.14 138.63"><defs><style>.cls-1,.cls-2{stroke-width:0px;}.cls-2,.cls-3{fill:#fff;}.cls-3{stroke:#000;stroke-miterlimit:10;}</style></defs><g id="Layer_1-2"><rect class="cls-2" x="3.12" y=".5" width="72.89" height="137.63" rx="18.56" ry="18.56"/><path class="cls-1" d="M57.45,1c9.96,0,18.06,8.1,18.06,18.06v100.5c0,9.96-8.1,18.06-18.06,18.06H21.69c-9.96,0-18.06-8.1-18.06-18.06V19.06C3.62,9.1,11.73,1,21.69,1h35.77M57.45,0H21.69C11.16,0,2.62,8.53,2.62,19.06v100.5c0,10.53,8.53,19.06,19.06,19.06h35.77c10.53,0,19.06-8.53,19.06-19.06V19.06c0-10.53-8.53-19.06-19.06-19.06h0Z"/><rect class="cls-3" x=".5" y="18.63" width="78.14" height="4.26"/><rect class="cls-3" x=".5" y="117.98" width="78.14" height="4.26"/></g></svg>